<svg width="50" height="50" viewBox="0 0 50 50" fill="none" xmlns="http://www.w3.org/2000/svg">
<circle cx="25" cy="25" r="25" fill="#E8A49C"/>
<path d="M25.7408 31.4036L28.3055 28.8389C28.6481 28.4963 29.1871 28.4486 29.5846 28.7258L33.1353 31.2023C33.6459 31.5584 33.7106 32.2894 33.2704 32.7296L32.8841 33.1159C32.1739 33.8261 31.1547 34.1338 30.1986 33.826C28.1336 33.1613 24.3767 31.6179 21.2618 28.503C18.1468 25.388 16.6034 21.6311 15.9387 19.5661C15.6309 18.61 15.9386 17.5908 16.6489 16.8806L17.0351 16.4943C17.4753 16.0541 18.2063 16.1188 18.5624 16.6294L21.0389 20.1801C21.3161 20.5776 21.2684 21.1166 20.9258 21.4593L18.3611 24.0239" stroke="white" stroke-width="2" stroke-linecap="round"/>
</svg>
